<?xml version="1.0" encoding="UTF-8" standalone="no"?>
<!-- Created with Inkscape (http://www.inkscape.org/) -->

<svg
   xmlns:dc="http://purl.org/dc/elements/1.1/"
   xmlns:cc="http://creativecommons.org/ns#"
   xmlns:rdf="http://www.w3.org/1999/02/22-rdf-syntax-ns#"
   xmlns:svg="http://www.w3.org/2000/svg"
   xmlns="http://www.w3.org/2000/svg"
   xmlns:xlink="http://www.w3.org/1999/xlink"
   xmlns:sodipodi="http://sodipodi.sourceforge.net/DTD/sodipodi-0.dtd"
   xmlns:inkscape="http://www.inkscape.org/namespaces/inkscape"
   width="210mm"
   height="297mm"
   viewBox="0 0 210 297"
   version="1.1"
   id="svg4694"
   inkscape:version="0.92.1 r15371"
   sodipodi:docname="dypy-logo.svg"
   inkscape:export-filename="/home/ry/Desktop/dypy-logo/dypy-logo-page.png"
   inkscape:export-xdpi="96"
   inkscape:export-ydpi="96">
  <defs
     id="defs4688">
    <radialGradient
       inkscape:collect="always"
       xlink:href="#linearGradient2795"
       id="radialGradient1480"
       gradientUnits="userSpaceOnUse"
       gradientTransform="matrix(0,-0.05247959,0.22664893,8.2926148e-8,94.100813,118.29619)"
       cx="61.518883"
       cy="132.28575"
       fx="61.518883"
       fy="132.28575"
       r="29.036913" />
    <linearGradient
       id="linearGradient2795">
      <stop
         style="stop-color:#b8b8b8;stop-opacity:0.49803922;"
         offset="0"
         id="stop2797" />
      <stop
         style="stop-color:#7f7f7f;stop-opacity:0;"
         offset="1"
         id="stop2799" />
    </linearGradient>
    <linearGradient
       inkscape:collect="always"
       xlink:href="#linearGradient4671"
       id="linearGradient1475"
       gradientUnits="userSpaceOnUse"
       gradientTransform="matrix(0.12089047,0,0,0.12422303,108.86657,84.578385)"
       x1="150.96111"
       y1="192.35176"
       x2="112.03144"
       y2="137.27299" />
    <linearGradient
       id="linearGradient4671">
      <stop
         style="stop-color:#ffd43b;stop-opacity:1;"
         offset="0"
         id="stop4673" />
      <stop
         style="stop-color:#ffe873;stop-opacity:1"
         offset="1"
         id="stop4675" />
    </linearGradient>
    <linearGradient
       inkscape:collect="always"
       xlink:href="#linearGradient4689"
       id="linearGradient1478"
       gradientUnits="userSpaceOnUse"
       gradientTransform="matrix(0.12089047,0,0,0.12422303,108.86657,84.578385)"
       x1="26.648937"
       y1="20.603781"
       x2="135.66525"
       y2="114.39767" />
    <linearGradient
       id="linearGradient4689">
      <stop
         style="stop-color:#5a9fd4;stop-opacity:1;"
         offset="0"
         id="stop4691" />
      <stop
         style="stop-color:#306998;stop-opacity:1;"
         offset="1"
         id="stop4693" />
    </linearGradient>
    <radialGradient
       inkscape:collect="always"
       xlink:href="#linearGradient2795"
       id="radialGradient1480-3"
       gradientUnits="userSpaceOnUse"
       gradientTransform="matrix(0,-0.46062689,0.29765074,7.2786416e-7,786.20529,752.44791)"
       cx="61.518883"
       cy="132.28575"
       fx="61.518883"
       fy="132.28575"
       r="29.036913" />
  </defs>
  <sodipodi:namedview
     id="base"
     pagecolor="#ffffff"
     bordercolor="#666666"
     borderopacity="1.0"
     inkscape:pageopacity="0.0"
     inkscape:pageshadow="2"
     inkscape:zoom="1.979899"
     inkscape:cx="351.1623"
     inkscape:cy="669.93626"
     inkscape:document-units="mm"
     inkscape:current-layer="layer1"
     showgrid="false"
     inkscape:window-width="1981"
     inkscape:window-height="1395"
     inkscape:window-x="1116"
     inkscape:window-y="306"
     inkscape:window-maximized="0" />
  <metadata
     id="metadata4691">
    <rdf:RDF>
      <cc:Work
         rdf:about="">
        <dc:format>image/svg+xml</dc:format>
        <dc:type
           rdf:resource="http://purl.org/dc/dcmitype/StillImage" />
        <dc:title />
      </cc:Work>
    </rdf:RDF>
  </metadata>
  <g
     inkscape:label="Layer 1"
     inkscape:groupmode="layer"
     id="layer1">
    <rect
       style="fill:none;stroke-width:0.58283788"
       id="rect37"
       width="70"
       height="70"
       x="74.567963"
       y="67.974632"
       inkscape:export-xdpi="96"
       inkscape:export-ydpi="96" />
    <g
       id="g52"
       transform="translate(0.4066422,-0.90318208)"
       inkscape:export-xdpi="96"
       inkscape:export-ydpi="96">
      <g
         inkscape:export-ydpi="96"
         inkscape:export-xdpi="96"
         transform="translate(1.6036172,2.0045215)"
         id="g4792">
        <path
           style="fill:url(#linearGradient1478);fill-opacity:1;stroke-width:0.21679863"
           d="m 123.89026,87.138052 c -0.98503,0.0046 -1.92571,0.09016 -2.75341,0.239217 -2.43831,0.438415 -2.88101,1.356048 -2.88101,3.048315 v 2.234978 h 5.76202 v 0.744993 h -5.76202 -2.16244 c -1.67461,0 -3.14094,1.024392 -3.59959,2.973138 -0.52905,2.233715 -0.55251,3.627577 0,5.959937 0.40958,1.73611 1.38773,2.97313 3.06233,2.97313 h 1.98112 v -2.67924 c 0,-1.93559 1.64552,-3.642935 3.59959,-3.642935 h 5.7553 c 1.60208,0 2.88102,-1.342501 2.88102,-2.979971 v -5.58403 c 0,-1.589243 -1.31734,-2.783074 -2.88102,-3.048315 -0.98982,-0.167687 -2.01686,-0.243874 -3.00189,-0.239217 z m -3.11606,1.797555 c 0.59518,0 1.08122,0.502737 1.08122,1.120899 0,0.615976 -0.48604,1.114071 -1.08122,1.114071 -0.59731,0 -1.08122,-0.498095 -1.08122,-1.114071 0,-0.618154 0.48391,-1.120899 1.08122,-1.120899 z"
           id="path1948"
           inkscape:connector-curvature="0" />
        <path
           style="fill:url(#linearGradient1475);fill-opacity:1;stroke-width:0.21679863"
           d="m 130.49175,93.405555 v 2.604059 c 0,2.018886 -1.6818,3.718128 -3.5996,3.718128 h -5.7553 c -1.57648,0 -2.88101,1.373178 -2.88101,2.979968 v 5.58402 c 0,1.58924 1.35786,2.52402 2.88101,2.97997 1.82393,0.54582 3.57298,0.64447 5.7553,0 1.45062,-0.42745 2.88102,-1.2877 2.88102,-2.97997 v -2.23498 h -5.75531 v -0.74499 h 5.75531 2.88102 c 1.6746,0 2.29863,-1.18879 2.88101,-2.97313 0.60157,-1.83695 0.57598,-3.603467 0,-5.959937 -0.41386,-1.696656 -1.20428,-2.973138 -2.88101,-2.973138 z m -3.23695,14.141185 c 0.59731,0 1.08122,0.4981 1.08122,1.11407 0,0.61816 -0.48391,1.12091 -1.08122,1.12091 -0.59517,0 -1.08122,-0.50275 -1.08122,-1.12091 0,-0.61597 0.48604,-1.11407 1.08122,-1.11407 z"
           id="path1950"
           inkscape:connector-curvature="0" />
        <ellipse
           style="opacity:0.44382025;fill:url(#radialGradient1480);fill-opacity:1;fill-rule:nonzero;stroke:none;stroke-width:3.34246731;stroke-miterlimit:4;stroke-dasharray:none;stroke-opacity:1"
           id="path1894"
           cx="124.08324"
           cy="115.06772"
           rx="7.7215934"
           ry="1.5238438" />
      </g>
      <g
         inkscape:export-ydpi="96"
         inkscape:export-xdpi="96"
         id="g4671"
         style="fill:#636363;fill-opacity:1"
         transform="matrix(0.35277777,0,0,0.35277777,30.675709,-7.7957218)">
        <g
           transform="matrix(0.26458333,0,0,0.26458333,148.53999,328.37201)"
           id="use4669">
          <path
             style="stroke:none"
             d="M 107,-14.9375 C 107,-4.1875 107,0 118.95313,0 h 21.81249 c 4.78125,0 12.26563,0 12.26563,-9.265625 0,-8.96875 -7.78125,-8.96875 -11.96875,-8.96875 H 127.625 V -170.35937 c 0,-9.26563 -1.79687,-12.25 -11.95312,-12.25 H 93.84375 c -4.78125,0 -12.25,0 -12.25,9.26562 0,8.96875 7.765625,8.96875 11.953125,8.96875 H 107 v 47.21875 c -9.859375,-8.67188 -22.125,-13.45312 -34.96875,-13.45312 -32.578125,0 -61.265625,28.39062 -61.265625,66.343745 0,37.0625 26.890625,66.0625 58.578125,66.0625 C 86.078125,1.796875 98.625,-6.28125 107,-14.9375 Z m 0,-64.265625 v 21.21875 C 107,-41.25 93.546875,-16.4375 70.53125,-16.4375 49.3125,-16.4375 31.375,-37.65625 31.375,-64.265625 c 0,-28.6875 20.921875,-48.109375 41.84375,-48.109375 19.140625,0 33.78125,16.734375 33.78125,33.171875 z m 0,0"
             id="path4785"
             inkscape:connector-curvature="0" />
        </g>
      </g>
      <g
         inkscape:export-ydpi="96"
         inkscape:export-xdpi="96"
         id="g4675"
         style="fill:#636363;fill-opacity:1"
         transform="matrix(0.35277777,0,0,0.35277777,-9.8536353,-7.7614281)">
        <g
           transform="matrix(0.26458333,0,0,0.26458333,305.44,328.37201)"
           id="use4673">
          <path
             style="stroke:none"
             d="m 145.25,-113.875 c 1.20312,-4.1875 1.20312,-4.78125 1.20312,-6.875 0,-5.375 -4.1875,-8.0625 -8.67187,-8.0625 -2.98438,0 -7.76563,1.79687 -10.45312,6.28125 -0.60938,1.48437 -3,10.75 -4.1875,16.125 -2.09375,7.78125 -4.1875,15.84375 -5.98438,23.921875 L 103.70313,-28.6875 c -1.1875,4.484375 -14.04688,25.40625 -33.76563,25.40625 -15.25,0 -18.53125,-13.15625 -18.53125,-24.21875 0,-13.75 5.078125,-32.28125 15.25,-58.578125 4.78125,-12.25 5.96875,-15.546875 5.96875,-21.515625 0,-13.45313 -9.5625,-24.51562 -24.5,-24.51562 -28.40625,0 -39.453125,43.343745 -39.453125,46.031245 0,2.984375 2.984375,2.984375 3.578125,2.984375 3,0 3.296875,-0.59375 4.78125,-5.375 8.078125,-28.09375 20.03125,-37.0625 30.1875,-37.0625 2.390625,0 7.46875,0 7.46875,9.5625 0,7.48437 -2.984375,15.25 -5.078125,20.921875 -11.953125,31.6875 -17.328125,48.71875 -17.328125,62.765625 0,26.609375 18.828125,35.5625 36.453125,35.5625 11.65625,0 21.828125,-5.078125 30.1875,-13.4375 C 95.046875,5.375 91.453125,20.03125 79.5,35.859375 71.734375,46.03125 60.375,54.6875 46.625,54.6875 c -4.1875,0 -17.640625,-0.890625 -22.71875,-12.546875 4.78125,0 8.671875,0 12.859375,-3.578125 2.984375,-2.703125 5.96875,-6.578125 5.96875,-12.265625 0,-9.265625 -8.0625,-10.453125 -11.046875,-10.453125 -6.875,0 -16.75,4.78125 -16.75,19.421875 0,14.953125 13.15625,26 31.6875,26 30.78125,0 61.5625,-27.1875 69.9375,-60.96875 z m 0,0"
             id="path4781"
             inkscape:connector-curvature="0" />
        </g>
      </g>
      <ellipse
         inkscape:export-ydpi="96"
         inkscape:export-xdpi="96"
         transform="matrix(0.99440784,0.10560799,-0.99912889,0.04173084,0,0)"
         ry="13.37517"
         rx="10.14052"
         cy="724.11078"
         cx="825.58014"
         id="path1894-5"
         style="opacity:0.44382025;fill:url(#radialGradient1480-3);fill-opacity:1;fill-rule:nonzero;stroke:none;stroke-width:11.34810257;stroke-miterlimit:4;stroke-dasharray:none;stroke-opacity:1" />
    </g>
  </g>
</svg>
